<svg xmlns="http://www.w3.org/2000/svg" width="46" height="46" viewBox="0 0 46 46" fill="none"><script xmlns=""/><script xmlns=""/><script xmlns=""/>
<path fill-rule="evenodd" clip-rule="evenodd" d="M21.0833 9.58333C14.7321 9.58333 9.58333 14.7321 9.58333 21.0833C9.58333 27.4346 14.7321 32.5833 21.0833 32.5833C27.4346 32.5833 32.5833 27.4346 32.5833 21.0833C32.5833 14.7321 27.4346 9.58333 21.0833 9.58333ZM5.75 21.0833C5.75 12.615 12.615 5.75 21.0833 5.75C29.5517 5.75 36.4167 12.615 36.4167 21.0833C36.4167 29.5517 29.5517 36.4167 21.0833 36.4167C12.615 36.4167 5.75 29.5517 5.75 21.0833Z" fill="black"/>
<path fill-rule="evenodd" clip-rule="evenodd" d="M32.5836 29.8728L41.0442 38.3334L38.3336 41.044L29.873 32.5834L32.5836 29.8728Z" fill="black"/>
</svg>