<svg width="24" height="24" viewBox="0 0 24 24" fill="none" xmlns="http://www.w3.org/2000/svg">
<rect x="0.5" y="0.5" width="23" height="23" rx="3.5" stroke="white"/>
<line x1="1" y1="6.5" x2="24" y2="6.5" stroke="white"/>
<path d="M9.63797 10.4512V19H7.95047V12.3965L5.92313 13.041V11.7109L9.45633 10.4512H9.63797ZM17.4434 16.6621C17.4434 17.1973 17.3184 17.6484 17.0684 18.0156C16.8184 18.3789 16.4746 18.6543 16.0371 18.8418C15.6035 19.0254 15.1113 19.1172 14.5605 19.1172C14.0098 19.1172 13.5156 19.0254 13.0781 18.8418C12.6406 18.6543 12.2949 18.3789 12.041 18.0156C11.7871 17.6484 11.6602 17.1973 11.6602 16.6621C11.6602 16.3027 11.7324 15.9785 11.877 15.6895C12.0215 15.3965 12.2227 15.1465 12.4805 14.9395C12.7422 14.7285 13.0488 14.5684 13.4004 14.459C13.752 14.3457 14.1348 14.2891 14.5488 14.2891C15.1035 14.2891 15.5996 14.3867 16.0371 14.582C16.4746 14.7773 16.8184 15.0527 17.0684 15.4082C17.3184 15.7637 17.4434 16.1816 17.4434 16.6621ZM15.7441 16.5508C15.7441 16.2891 15.6934 16.0645 15.5918 15.877C15.4941 15.6855 15.3555 15.5391 15.1758 15.4375C14.9961 15.3359 14.7871 15.2852 14.5488 15.2852C14.3105 15.2852 14.1016 15.3359 13.9219 15.4375C13.7422 15.5391 13.6016 15.6855 13.5 15.877C13.4023 16.0645 13.3535 16.2891 13.3535 16.5508C13.3535 16.8086 13.4023 17.0312 13.5 17.2188C13.6016 17.4062 13.7422 17.5508 13.9219 17.6523C14.1055 17.75 14.3184 17.7988 14.5605 17.7988C14.8027 17.7988 15.0117 17.75 15.1875 17.6523C15.3672 17.5508 15.5039 17.4062 15.5977 17.2188C15.6953 17.0312 15.7441 16.8086 15.7441 16.5508ZM17.2617 12.7305C17.2617 13.1641 17.1465 13.5488 16.916 13.8848C16.6855 14.2168 16.3652 14.4766 15.9551 14.6641C15.5488 14.8516 15.084 14.9453 14.5605 14.9453C14.0332 14.9453 13.5645 14.8516 13.1543 14.6641C12.7441 14.4766 12.4238 14.2168 12.1934 13.8848C11.9629 13.5488 11.8477 13.1641 11.8477 12.7305C11.8477 12.2148 11.9629 11.7812 12.1934 11.4297C12.4277 11.0742 12.748 10.8047 13.1543 10.6211C13.5645 10.4375 14.0293 10.3457 14.5488 10.3457C15.0762 10.3457 15.543 10.4375 15.9492 10.6211C16.3594 10.8047 16.6797 11.0742 16.9102 11.4297C17.1445 11.7812 17.2617 12.2148 17.2617 12.7305ZM15.5742 12.8066C15.5742 12.5762 15.5332 12.377 15.4512 12.209C15.3691 12.0371 15.252 11.9043 15.0996 11.8105C14.9512 11.7168 14.7676 11.6699 14.5488 11.6699C14.3379 11.6699 14.1562 11.7148 14.0039 11.8047C13.8555 11.8945 13.7402 12.0254 13.6582 12.1973C13.5801 12.3652 13.541 12.5684 13.541 12.8066C13.541 13.0371 13.5801 13.2402 13.6582 13.416C13.7402 13.5879 13.8574 13.7227 14.0098 13.8203C14.1621 13.918 14.3457 13.9668 14.5605 13.9668C14.7754 13.9668 14.957 13.918 15.1055 13.8203C15.2578 13.7227 15.373 13.5879 15.4512 13.416C15.5332 13.2402 15.5742 13.0371 15.5742 12.8066Z" fill="white"/>
</svg>
